<svg width="32" height="32" xmlns="http://www.w3.org/2000/svg">
 <g>
  <title>background</title>
  <rect x="-1" y="-1" width="34" height="34" id="canvas_background" fill="none"/>
 </g>

 <g>
  <title>Layer 1</title>
  <polyline fill="none" points="   649,137.999 675,137.999 675,155.999 661,155.999  " stroke="#FFFFFF" stroke-linecap="round" stroke-linejoin="round" stroke-miterlimit="10" stroke-width="2" id="svg_2"/>
  <polyline fill="none" points="   653,155.999 649,155.999 649,141.999  " stroke="#FFFFFF" stroke-linecap="round" stroke-linejoin="round" stroke-miterlimit="10" stroke-width="2" id="svg_3"/>
  <polyline fill="none" points="   661,156 653,162 653,156  " stroke="#FFFFFF" stroke-linecap="round" stroke-linejoin="round" stroke-miterlimit="10" stroke-width="2" id="svg_4"/>
  <path d="m16,30c-3.74,0 -7.255,-1.455999 -9.899,-4.101c-4.322,-4.322001 -5.348,-10.874001 -2.554,-16.304c0.253,-0.491 0.855,-0.684 1.347,-0.432c0.491,0.252 0.685,0.855 0.432,1.347c-2.395,4.653999 -1.515,10.27 2.189,13.975c2.266,2.267 5.279,3.514999 8.485,3.514999c3.205,0 6.219,-1.247999 8.485001,-3.514999s3.514999,-5.280001 3.514999,-8.485001c0,-3.206 -1.247999,-6.219 -3.514999,-8.485s-5.279001,-3.515 -8.485001,-3.515c-3.206,0 -6.219,1.249 -8.485,3.515c-0.391,0.391 -1.023,0.391 -1.414,0s-0.391,-1.023 0,-1.414c2.644,-2.644 6.159,-4.101 9.899,-4.101c3.74,0 7.256001,1.457 9.899,4.101c2.645,2.644 4.101,6.159 4.101,9.899c0,3.739 -1.455999,7.254999 -4.101,9.899c-2.643,2.645 -6.159,4.101 -9.899,4.101z" id="svg_6" fill="#bcbabe"/>
  <path d="m21,17l-10,0c-0.552,0 -1,-0.448 -1,-1s0.448,-1 1,-1l10,0c0.552999,0 1,0.448 1,1s-0.447001,1 -1,1z" id="svg_8" fill="#bcbabe"/>
 </g>
</svg>