<svg width="32" height="32" xmlns="http://www.w3.org/2000/svg">

 <g>
  <title>background</title>
  <rect fill="none" id="canvas_background" height="402" width="582" y="-1" x="-1"/>
 </g>
 <g>
  <title>Layer 1</title>
  <polyline id="svg_2" stroke-width="2" stroke-miterlimit="10" stroke-linejoin="round" stroke-linecap="round" stroke="#FFFFFF" points="   649,137.999 675,137.999 675,155.999 661,155.999  " fill="none"/>
  <polyline id="svg_3" stroke-width="2" stroke-miterlimit="10" stroke-linejoin="round" stroke-linecap="round" stroke="#FFFFFF" points="   653,155.999 649,155.999 649,141.999  " fill="none"/>
  <polyline id="svg_4" stroke-width="2" stroke-miterlimit="10" stroke-linejoin="round" stroke-linecap="round" stroke="#FFFFFF" points="   661,156 653,162 653,156  " fill="none"/>
  <path fill="#bcbabe" id="svg_6" d="m24.034,30c-0.166,0 -0.333,-0.041 -0.483,-0.125l-7.551001,-4.174l-7.55,4.174c-0.335,0.187 -0.747,0.163 -1.06,-0.058001c-0.313,-0.220999 -0.473,-0.601 -0.411,-0.979l1.452,-8.903999l-3.169,-3.204c-0.388,-0.393 -0.385,-1.025999 0.008,-1.414c0.393,-0.388 1.026,-0.385 1.414,0.008l3.527,3.565999c0.224999,0.228001 0.327999,0.549 0.276,0.864l-1.203,7.375l6.231999,-3.445c0.301001,-0.166 0.667001,-0.166 0.967999,0l6.232,3.445l-1.202999,-7.375c-0.051001,-0.313 0.049999,-0.632999 0.271,-0.858999l5.140999,-5.269l-7.059,-1.078c-0.328999,-0.051001 -0.612,-0.262 -0.754,-0.564l-3.112,-6.63l-3.112,6.63c-0.141999,0.302 -0.424999,0.513 -0.754,0.564l-8.983,1.372c-0.544,0.085999 -1.056,-0.291 -1.14,-0.838c-0.083,-0.546 0.292,-1.056 0.838,-1.139999l8.455,-1.291l3.791,-8.076c0.164,-0.351 0.517,-0.575 0.905,-0.575s0.740999,0.224 0.905001,0.575l3.790998,8.076l8.455,1.291c0.370001,0.056999 0.678001,0.316 0.797001,0.671s0.028999,0.748 -0.232,1.016l-6.146999,6.300001l1.452999,8.908998c0.062,0.378 -0.098999,0.758001 -0.410999,0.979c-0.173,0.121 -0.375,0.183001 -0.577,0.183001z"/>
 </g>
</svg>