<svg width="32" height="32" xmlns="http://www.w3.org/2000/svg">
 <g>
  <title>background</title>
  <rect x="-1" y="-1" width="34" height="34" id="canvas_background" fill="none"/>
 </g>

 <g>
  <title>Layer 1</title>
  <path d="m30,16c0,-1.969 -1.431,-3.611 -3.306999,-3.94l-0.347,-0.835c1.094999,-1.56 0.945,-3.731 -0.447001,-5.124001c-1.346001,-1.346 -3.599001,-1.521 -5.125,-0.448l-0.835001,-0.346c-0.328999,-1.876 -1.969999,-3.307 -3.938999,-3.307c-1.969,0 -3.611,1.431 -3.94,3.307l-0.835,0.346c-1.558001,-1.093 -3.731,-0.945 -5.124001,0.448c-0.756,0.755 -1.172,1.76 -1.172,2.829c0,0.832999 0.253,1.627999 0.724,2.296l-0.346,0.834001c-1.877,0.329 -3.307,1.971 -3.307,3.94c0,0 0,0 0,0s0,0 0,0c0,1.969999 1.431,3.611 3.307,3.940001l0.346,0.834c-1.094,1.560999 -0.945,3.732 0.448,5.125c1.344,1.344999 3.601,1.521 5.125,0.448l0.835,0.346001c0.329,1.875999 1.971,3.306999 3.94,3.306999c1.970001,0 3.611,-1.431 3.939001,-3.306999l0.834999,-0.347c1.559,1.094999 3.73,0.946999 5.125,-0.447001c0.756001,-0.756001 1.172001,-1.76 1.172001,-2.829c0,-0.833 -0.254,-1.628 -0.724001,-2.296l0.346001,-0.834c1.875,-0.328001 3.306,-1.969 3.306,-3.940001c0,0.000999 0,0.000999 0,0c0,0 0,0 0,0zm-4,2.002001c-0.403999,0 -0.768999,0.243 -0.924,0.616999l-0.808001,1.948c-0.154999,0.374001 -0.069,0.804001 0.217001,1.09c0.378,0.378 0.585999,0.880001 0.585999,1.414c0,0.535002 -0.207998,1.037001 -0.585999,1.415001c-0.780001,0.780001 -2.051001,0.778 -2.829,0c-0.285999,-0.285999 -0.716,-0.372 -1.09,-0.217001l-1.948999,0.808001c-0.374001,0.155001 -0.617001,0.52 -0.617001,0.924c0,1.103001 -0.896999,2 -2,2c-1.103,0 -2,-0.896999 -2,-2c0,-0.403999 -0.244,-0.769999 -0.617,-0.924l-1.950001,-0.808001c-0.375,-0.154999 -0.802999,-0.068998 -1.089999,0.217001c-0.756001,0.756001 -2.072001,0.756001 -2.828001,0c-0.78,-0.780001 -0.78,-2.049 0,-2.829c0.286,-0.285999 0.372,-0.716 0.217,-1.09l-0.808,-1.948c-0.155,-0.373999 -0.52,-0.616999 -0.924,-0.616999c-1.103,0 -2,-0.897001 -2,-2.001001c0,0 0,0 0,0s0,0 0,0c0,-1.103 0.897,-1.999999 2,-1.999999c0.404,0 0.769,-0.244 0.924,-0.617001l0.808,-1.95c0.155,-0.374 0.069,-0.804 -0.217,-1.09c-0.378,-0.378 -0.586,-0.88 -0.586,-1.414c0,-0.534 0.208,-1.037 0.586,-1.415c0.78,-0.78 2.049,-0.78 2.829,0c0.286,0.286 0.716001,0.37 1.09,0.217l1.949,-0.808c0.372999,-0.155 0.617,-0.52 0.617,-0.924c0,-1.103 0.897,-2 2,-2c1.103001,0 2,0.897 2,2c0,0.404 0.243999,0.769 0.617001,0.924l1.949999,0.808c0.374001,0.154 0.804001,0.07 1.09,-0.217c0.756001,-0.756 2.072001,-0.756 2.828001,0c0.778999,0.78 0.778999,2.049 0,2.829c-0.286001,0.286 -0.372,0.716001 -0.217001,1.09l0.808001,1.95c0.153999,0.372 0.52,0.616 0.924,0.616c1.103001,0 2,0.897 2,2c0,0 0,0 0,0s0,0 0,0c0,1.104 -0.896999,2.002001 -2,2.002001z" id="svg_2" fill="#bcbabe"/>
  <path d="m16,11c-2.757,0 -5,2.243 -5,5s2.243,5 5,5c0.552,0 1,-0.447001 1,-1s-0.448,-1 -1,-1c-1.654,0 -3,-1.346001 -3,-3s1.346,-3 3,-3s3,1.346 3,3c0,0.582001 -0.166,1.146 -0.481001,1.632c-0.300999,0.462999 -0.168999,1.082001 0.295,1.382999c0.463001,0.301001 1.082001,0.17 1.383001,-0.295c0.525,-0.809999 0.802999,-1.750999 0.802999,-2.719999c0,-2.757 -2.243,-5 -5,-5z" id="svg_3" fill="#bcbabe"/>
 </g>
</svg>