<svg width="32" height="32" xmlns="http://www.w3.org/2000/svg">

 <g>
  <title>background</title>
  <rect fill="none" id="canvas_background" height="402" width="582" y="-1" x="-1"/>
 </g>
 <g>
  <title>Layer 1</title>
  <polyline id="svg_2" stroke-width="2" stroke-miterlimit="10" stroke-linejoin="round" stroke-linecap="round" stroke="#FFFFFF" points="   649,137.999 675,137.999 675,155.999 661,155.999  " fill="none"/>
  <polyline id="svg_3" stroke-width="2" stroke-miterlimit="10" stroke-linejoin="round" stroke-linecap="round" stroke="#FFFFFF" points="   653,155.999 649,155.999 649,141.999  " fill="none"/>
  <polyline id="svg_4" stroke-width="2" stroke-miterlimit="10" stroke-linejoin="round" stroke-linecap="round" stroke="#FFFFFF" points="   661,156 653,162 653,156  " fill="none"/>
  <path fill="#1995ad" id="svg_6" d="m16,30c-3.74,0 -7.255,-1.455999 -9.899,-4.101c-4.322,-4.321001 -5.348,-10.874001 -2.554,-16.304c0.253,-0.491 0.855,-0.684 1.347,-0.432c0.491,0.252 0.685,0.855 0.432,1.347c-2.395,4.655 -1.516,10.271 2.189,13.975c2.266,2.267 5.279,3.514999 8.485,3.514999c3.205,0 6.219,-1.247999 8.485001,-3.514999s3.514999,-5.280001 3.514999,-8.485001c0,-3.206 -1.247999,-6.219 -3.514999,-8.485s-5.279001,-3.515 -8.485001,-3.515c-3.206,0 -6.219,1.249 -8.485,3.515c-0.391,0.391 -1.023,0.391 -1.414,0s-0.391,-1.023 0,-1.414c2.644,-2.644 6.159,-4.101 9.899,-4.101c3.74,0 7.256001,1.457 9.899,4.101c2.645,2.644 4.101,6.159 4.101,9.899c0,3.739 -1.455999,7.254999 -4.101,9.899c-2.643,2.645 -6.159,4.101 -9.899,4.101z"/>
  <path fill="#1995ad" id="svg_8" d="m16,22c-0.552,0 -1,-0.447001 -1,-1l0,-10c0,-0.552 0.448,-1 1,-1s1,0.448 1,1l0,10c0,0.552999 -0.448,1 -1,1z"/>
  <path fill="#1995ad" id="svg_10" d="m21,17l-10,0c-0.552,0 -1,-0.448 -1,-1s0.448,-1 1,-1l10,0c0.552999,0 1,0.448 1,1s-0.447001,1 -1,1z"/>
 </g>
</svg>